/* XPM */
static char * select_xpm[] = {
"64 64 3 1",
" 	c None",
".	c #FFFFFF",
"+	c #000000",
"                                                                ",
"                                                                ",
"  ............                                    ............  ",
"  .++++++++++.                                    .++++++++++.  ",
"  .++++++++++.                                    .++++++++++.  ",
"  .++.........                                    .........++.  ",
"  .++.                                                    .++.  ",
"  .++.                                                    .++.  ",
"  .++.                                                    .++.  ",
"  .++.                                                    .++.  ",
"  .++.                                                    .++.  ",
"  .++.                                                    .++.  ",
"  .++.                                                    .++.  ",
"  .++.                                                    .++.  ",
"  .++.                                                    .++.  ",
"  .++.                                                    .++.  ",
"  .++.                                                    .++.  ",
"  .++.                                                    .++.  ",
"  .++.                                                    .++.  ",
"  .++.                                                    .++.  ",
"  .++.                                                    .++.  ",
"  .++.                                                    .++.  ",
"  .++.                                                    .++.  ",
"  .++.                                                    .++.  ",
"  .++.                                                    .++.  ",
"  .++.                                                    .++.  ",
"  .++.                                                    .++.  ",
"  .++.                                                    .++.  ",
"  .++.                                                    .++.  ",
"  .++.                                                    .++.  ",
"  .++.                                                    .++.  ",
"  .++.                                                    .++.  ",
"  .++.                                                    .++.  ",
"  .++.                                                    .++.  ",
"  .++.                                                    .++.  ",
"  .++.                                                    .++.  ",
"  .++.                                                    .++.  ",
"  .++.                                                    .++.  ",
"  .++.                                                    .++.  ",
"  .++.                                                    .++.  ",
"  .++.                                                    .++.  ",
"  .++.                                                    .++.  ",
"  .++.                                                    .++.  ",
"  .++.                                                    .++.  ",
"  .++.                                                    .++.  ",
"  .++.                                                    .++.  ",
"  .++.                                                    .++.  ",
"  .++.                                                    .++.  ",
"  .++.                                                    .++.  ",
"  .++.                                                    .++.  ",
"  .++.                                                    .++.  ",
"  .++.                                                    .++.  ",
"  .++.                                                    .++.  ",
"  .++.                                                    .++.  ",
"  .++.                                                    .++.  ",
"  .++.                                                    .++.  ",
"  .++.                                                    .++.  ",
"  .++.                                                    .++.  ",
"  .++.........                                    .........++.  ",
"  .++++++++++.                                    .++++++++++.  ",
"  .++++++++++.                                    .++++++++++.  ",
"  ............                                    ............  ",
"                                                                ",
"                                                                "};
